<svg width="100" height="100" xmlns="http://www.w3.org/2000/svg">
 <!-- Created with Method Draw - http://github.com/duopixel/Method-Draw/ -->

 <g>
  <title>background</title>
  <rect fill="none" id="canvas_background" height="102" width="102" y="-1" x="-1"/>
 </g>
 <g>
  <title>Layer 1</title>
  <g stroke="null" id="svg_1">
   <path stroke="null" fill-rule="nonzero" fill="#000000" id="Delete" d="m20.338249,33.616556l0.009033,-0.006766c-0.010917,0.007882 -0.018485,0.013358 -0.027867,0.020822c0.00558,-0.004185 0.011684,-0.008719 0.018834,-0.014056zm0.029192,32.795519l-0.011719,-0.008719c0.002407,0.001883 0.006452,0.004848 0.011719,0.008719zm8.150339,-40.677511c0.504781,-0.487587 0.882748,-0.848952 1.234697,-1.178684c0.351216,-0.338451 0.713244,-0.677041 1.106976,-1.035547c0.31735,-0.325337 0.355366,-0.363737 0.407334,-0.41281c1.120927,-1.082352 2.413764,-1.986934 3.839206,-2.684309c1.404446,-0.679971 2.905885,-1.156746 4.480358,-1.41878c1.43151,-0.223739 2.878332,-0.345287 4.303181,-0.363249c0.693852,-0.015799 1.298732,-0.023926 1.856736,-0.023821c0.615517,-0.005894 1.105929,-0.00708 2.191665,-0.00708l24.324831,0c1.093652,0 1.580925,0.001186 2.169866,0.006975c0.583395,0 1.190333,0.008161 1.847982,0.023473c1.452611,0.018241 2.901805,0.139789 4.360589,0.367643c1.548699,0.257675 3.048883,0.734938 4.452247,1.416583c1.422233,0.691446 2.719709,1.597562 3.839555,2.680507c1.119253,1.078027 2.056794,2.31684 2.787581,3.688256c0.705466,1.349723 1.199436,2.79215 1.469143,4.299414c0.234377,1.376892 0.360668,2.768782 0.376956,4.122027c0.006034,0.194023 0.010777,0.395441 0.014718,0.614994c0.004185,0.234132 0.006522,0.416576 0.011196,0.834373c0.001953,0.174527 0.001953,0.174527 0.00422,0.374584l0,23.679946l0,2.138895c-0.003209,0.213136 -0.003209,0.213136 -0.005929,0.433841c-0.008336,0.677948 -0.013498,0.982393 -0.024519,1.328099c-0.017439,1.40755 -0.144951,2.811856 -0.384663,4.219091c-0.268243,1.501161 -0.766467,2.955934 -1.486373,4.331885c-0.72709,1.365139 -1.671014,2.613298 -2.799823,3.70151c-1.133762,1.090548 -2.441213,2.000641 -3.874049,2.696516c-1.413793,0.68597 -2.925905,1.166267 -4.506586,1.428441c-1.447589,0.228273 -2.911012,0.3516 -4.354904,0.36855c-0.771559,0.016148 -1.328029,0.023821 -1.889591,0.023821l-27.050469,0l-1.454146,0c-0.61046,-0.002337 -1.228454,-0.010324 -1.84446,-0.023438c-1.452367,-0.017578 -2.901316,-0.140173 -4.353335,-0.369806c-1.549745,-0.257047 -3.051359,-0.73295 -4.467663,-1.417838c-1.414874,-0.693399 -2.707014,-1.596795 -3.766382,-2.618948c-0.090647,-0.081264 -0.156914,-0.147148 -0.333777,-0.326209c-0.469381,-0.440502 -0.769885,-0.723568 -1.225768,-1.161454c-0.350693,-0.330848 -0.628945,-0.596858 -1.249136,-1.19246l-8.274817,-7.957746c-0.269463,-0.238736 -0.415007,-0.374689 -0.660893,-0.608019c-0.299109,-0.28031 -0.466277,-0.439665 -0.839814,-0.798345l-7.538414,-7.252419c-0.100238,-0.099715 -0.208184,-0.205498 -0.333115,-0.326523c-0.096715,-0.093646 -0.174318,-0.168353 -0.354704,-0.34159c-0.261162,-0.250804 -0.456685,-0.442525 -0.589394,-0.580012c-0.630794,-0.598741 -1.227408,-1.229779 -1.787226,-1.890358c-0.524348,-0.532091 -0.948283,-1.148166 -1.252519,-1.820638l-0.083287,-0.211776c-0.543844,-1.616814 -0.543844,-3.35699 0,-4.973805l0.079765,-0.203963c0.301934,-0.674181 0.723672,-1.292454 1.246032,-1.8273c0.56219,-0.661695 1.159222,-1.292628 1.748023,-1.850563c0.256698,-0.257082 0.438305,-0.436805 0.667834,-0.657649c0.085171,-0.082485 0.085171,-0.082485 0.202708,-0.195697c0.178049,-0.171737 0.316513,-0.307096 0.477891,-0.467846l7.518604,-7.228214c0.096087,-0.091832 0.173341,-0.16497 0.340125,-0.322512c0.193954,-0.183246 0.284949,-0.269603 0.38721,-0.367783c0.222553,-0.212473 0.437224,-0.413403 0.695212,-0.648407c0.01852,-0.015381 2.799649,-2.686646 8.343316,-8.013829zm-5.197299,11.546846c0.004429,-0.003209 0.007708,-0.00558 0.012416,-0.009277c-0.00014,0.000105 -0.00429,0.003174 -0.012416,0.009277zm0.267475,25.667613l8.363336,8.042917c0.608821,0.584651 0.880307,0.844209 1.232639,1.176696c0.437677,0.420308 0.708222,0.675123 0.985079,0.924741c0.088624,0.079346 0.075579,0.066267 0.343124,0.337195c0.080044,0.08102 0.143277,0.14387 0.188896,0.186804c0.761968,0.733717 1.639729,1.347386 2.589268,1.812756c0.977859,0.472869 2.023241,0.80417 3.083307,0.980057c1.193193,0.188652 2.399499,0.290739 3.631441,0.305736c0.61039,0.012905 1.199366,0.020508 1.77031,0.02267l28.495024,0c0.519465,0 1.044719,-0.00722 1.807071,-0.023054c1.22385,-0.014474 2.444805,-0.117363 3.632697,-0.30462c1.087863,-0.180456 2.141755,-0.515245 3.126276,-0.992926c0.972907,-0.472485 1.861201,-1.090827 2.629551,-1.829881c0.772152,-0.74439 1.418989,-1.59969 1.909297,-2.520175c0.497387,-0.950725 0.84543,-1.966914 1.029652,-2.997508c0.197406,-1.159327 0.303818,-2.331209 0.319268,-3.546933c0.010777,-0.350135 0.015625,-0.636235 0.023612,-1.286629c0.002651,-0.21495 0.002755,-0.221995 0.005755,-0.430213l0,-23.682667l0,-2.056968c-0.002128,-0.176933 -0.002128,-0.176933 -0.004081,-0.352472c-0.004569,-0.407752 -0.006836,-0.583639 -0.010777,-0.804414c-0.003627,-0.201103 -0.007917,-0.383303 -0.014195,-0.598148c-0.0143,-1.162117 -0.119525,-2.321583 -0.311456,-3.44973c-0.185618,-1.036907 -0.529754,-2.041796 -1.012667,-2.965875c-0.493063,-0.925194 -1.133169,-1.771008 -1.900717,-2.510305c-0.758201,-0.733194 -1.633974,-1.344805 -2.593104,-1.811117c-0.974302,-0.473217 -2.016405,-0.804762 -3.067333,-0.979743c-1.197901,-0.187013 -2.408533,-0.288541 -3.648426,-0.304271c-0.647884,-0.014928 -1.217223,-0.022566 -1.782517,-0.022705c-0.591626,-0.005685 -1.068087,-0.006836 -2.145522,-0.006836l-24.324831,0c-1.069622,0 -1.549222,0.001151 -2.167425,0.006975c-0.540043,0 -1.107917,0.007603 -1.791516,0.023054c-1.21105,0.015381 -2.41924,0.116874 -3.589902,0.299702c-1.079109,0.179689 -2.124595,0.511687 -3.093491,0.980754c-0.959479,0.469451 -1.835252,1.082213 -2.610857,1.830927c-0.003662,0.003488 -0.057618,0.058001 -0.168633,0.171074c-0.213311,0.217356 -0.259488,0.263708 -0.336742,0.33294c-0.348496,0.31742 -0.678053,0.625632 -1.019503,0.954387c-0.355087,0.332975 -0.717848,0.679797 -1.211085,1.156258l-8.356011,8.034685c-0.118723,0.105679 -0.160401,0.142823 -0.196221,0.171562c-0.162982,0.150043 -0.328894,0.305771 -0.497597,0.4668c-0.109062,0.104702 -0.207416,0.198104 -0.377339,0.35861c-0.196604,0.185688 -0.266115,0.251571 -0.348217,0.329976l-7.47975,7.190198c-0.151229,0.151298 -0.30877,0.305317 -0.505793,0.495365c-0.123885,0.119316 -0.123885,0.119316 -0.280903,0.269428c-0.123954,0.120606 -0.287809,0.282786 -0.571363,0.565573c-0.529196,0.50248 -1.029025,1.032722 -1.497185,1.588285l-0.146695,0.158692c-0.124199,0.122594 -0.227924,0.262627 -0.307724,0.415077c-0.182723,0.615099 -0.183211,1.267028 -0.001395,1.882336c0.079695,0.149764 0.182863,0.287181 0.30605,0.407299l0.159529,0.171841c0.465614,0.554377 0.963315,1.083154 1.551245,1.643321c0.153914,0.156914 0.318954,0.31878 0.548901,0.539589c0.182863,0.175608 0.266324,0.255931 0.369701,0.356064c0.139126,0.134767 0.26179,0.254919 0.349856,0.343055l7.508175,7.222843c0.354529,0.340439 0.510257,0.488877 0.710384,0.675367c0.277276,0.263116 0.388291,0.367364 0.517337,0.485738c0.011544,0.009347 0.072964,0.06264 0.184188,0.159843zm24.24524,-25.952248c0.578478,0 1.133029,0.221576 1.540816,0.615587l-0.009696,0c0.103028,0.098947 0.194093,0.206161 0.272811,0.319722l9.490296,9.110306l9.521721,-9.150625c0.07265,-0.100273 0.155553,-0.195802 0.248676,-0.285228c0.621237,-0.596614 1.555604,-0.775117 2.367342,-0.452256c0.811738,0.322861 1.341003,1.083538 1.341003,1.927259c0,0.560899 -0.233888,1.085073 -0.629189,1.468306l0.02424,0.0241l-9.797601,9.419076l9.493156,9.108109c0.112305,0.073278 0.217984,0.156983 0.315362,0.25049l-0.004848,0.004639c0.621307,0.596614 0.807169,1.493836 0.47095,2.273348c-0.336184,0.779511 -1.128286,1.28778 -2.006919,1.28778c-0.583988,0 -1.129786,-0.224541 -1.528853,-0.604043l-0.019217,0.017299l-9.788847,-9.386989l-9.776152,9.40094l-0.039133,-0.036552c-0.19636,0.186734 -0.431539,0.339079 -0.696921,0.444653c-0.811738,0.322861 -1.746105,0.144358 -2.367342,-0.452291c-0.408834,-0.39136 -0.638606,-0.922927 -0.638606,-1.477305c0,-0.554342 0.229773,-1.08591 0.638606,-1.477305l0,0.004674c0.110422,-0.106062 0.230784,-0.198941 0.358575,-0.278113l9.448269,-9.079335l-9.806844,-9.406276l0.030413,-0.030971c-0.19486,-0.188757 -0.353797,-0.414867 -0.463835,-0.670066c-0.336219,-0.779511 -0.150357,-1.676769 0.47095,-2.273348c0.407752,-0.394011 0.962339,-0.615587 1.540816,-0.615587z"/>
  </g>
 </g>
</svg>