<?xml version="1.0" encoding="UTF-8"?>
<svg width="24px" height="24px" viewBox="0 0 24 24" version="1.1" xmlns="http://www.w3.org/2000/svg" xmlns:xlink="http://www.w3.org/1999/xlink">
    <!-- Generator: sketchtool 61.2 (101010) - https://sketch.com -->
    <title>CBBE30ED-D772-438D-A935-6899840E7EA4</title>
    <desc>Created with sketchtool.</desc>
    <g id="postpaid" stroke="none" stroke-width="1" fill="none" fill-rule="evenodd">
        <g id="1.-IR_Prepaid/Postpaid_Mobile_Start_Jorney_Active-Pack-Check" transform="translate(-229.000000, -374.000000)" fill="#E71818">
            <g id="Benefit-Card" transform="translate(203.000000, 362.000000)">
                <g id="Group-3">
                    <g id="icon/support/red" transform="translate(26.000000, 12.000000)">
                        <g id="Fill-56" transform="translate(2.000000, 2.000000)">
                            <path d="M10.7704326,17.4551196 C10.7710048,17.7744498 10.6474641,18.0745455 10.4225837,18.3000957 L10.4222967,18.3003828 C10.1974163,18.5265072 9.89770335,18.6513876 9.57607656,18.6520574 C8.91779904,18.6520574 8.38229665,18.1162679 8.38229665,17.4576077 C8.38229665,16.7990431 8.91779904,16.2632536 9.57607656,16.2632536 C10.2333971,16.2632536 10.7691866,16.7978947 10.7704326,17.4551196 L10.7704326,17.4551196 Z M3.604689,9.05980861 L3.604689,13.9801914 L3.13875598,13.9801914 C2.11971292,13.9801914 1.29062201,13.1513876 1.29062201,12.1327273 L1.29062201,10.9072727 C1.29062201,9.88861244 2.11971292,9.05980861 3.13875598,9.05980861 L3.604689,9.05980861 Z M15.5472727,9.05980861 L16.014067,9.05980861 C17.0326316,9.05980861 17.8614354,9.88861244 17.8614354,10.9072727 L17.8614354,12.1327273 C17.8614354,13.1513876 17.0326316,13.9801914 16.014067,13.9801914 L15.5472727,13.9801914 L15.5472727,9.05980861 Z M17.1588517,7.9862201 L17.1588517,7.59033493 C17.1604785,3.40803828 13.7588517,0.00306220096 9.57588517,5.68434189e-14 C5.40086124,0.00459330144 2.00066986,3.40516746 1.99617225,7.58066986 L1.99617225,7.97655502 C0.799521531,8.44535885 0.00162679426,9.6061244 -5.68434189e-14,10.8977033 L-5.68434189e-14,12.1223923 C-5.68434189e-14,13.8538756 1.40909091,15.2625837 3.14095694,15.2625837 L4.25330144,15.2625837 C4.60976077,15.2625837 4.89971292,14.9726316 4.89971292,14.6161722 L4.89971292,8.41339713 C4.89971292,8.05741627 4.60976077,7.7677512 4.25330144,7.7677512 L3.28822967,7.7677512 L3.28822967,7.58066986 C3.28822967,4.11349282 6.10889952,1.29282297 9.57607656,1.29282297 C13.0431579,1.29282297 15.8639234,4.11349282 15.8639234,7.58066986 L15.8639234,7.7677512 L14.9017225,7.7677512 C14.5452632,7.7677512 14.255311,8.05741627 14.255311,8.41339713 L14.255311,14.6265072 C14.255311,14.9829665 14.5452632,15.2729187 14.9017225,15.2729187 L15.4849761,15.2729187 C15.2486124,16.1217225 14.4735885,16.7221053 13.5793301,16.7240191 L11.9449761,16.7240191 C11.7614354,16.1309091 11.3684211,15.6344498 10.8286124,15.3174163 C10.2633493,14.9865072 9.58229665,14.891866 8.94440191,15.0576077 C8.30258373,15.2257416 7.76421053,15.6332057 7.42842105,16.2050718 C7.09272727,16.7780861 7.00047847,17.4469856 7.16851675,18.0882297 C7.33617225,18.7320574 7.74382775,19.270622 8.31588517,19.6044019 C8.70191388,19.8311005 9.13177033,19.9470813 9.56746411,19.9470813 C9.77808612,19.9470813 9.99014354,19.92 10.1992344,19.8652632 C11.0954067,19.6320574 11.788134,18.91311 11.9937799,18.0159809 L13.5794258,18.0159809 C15.2364593,18.0152153 16.6136842,16.7966507 16.8250718,15.1642105 C18.2006699,14.7976077 19.1534928,13.5657416 19.1549282,12.1327273 L19.1549282,10.9069856 C19.1534928,9.61636364 18.3555981,8.45569378 17.1588517,7.9862201 L17.1588517,7.9862201 Z" id="Fill-55"></path>
                        </g>
                    </g>
                </g>
            </g>
        </g>
    </g>
</svg>