<?xml version="1.0" encoding="UTF-8"?>
<svg width="24px" height="24px" viewBox="0 0 24 24" version="1.1" xmlns="http://www.w3.org/2000/svg" xmlns:xlink="http://www.w3.org/1999/xlink">
    <!-- Generator: sketchtool 61.2 (101010) - https://sketch.com -->
    <title>9AC47185-4091-47F8-943F-1FCDEB6E631D</title>
    <desc>Created with sketchtool.</desc>
    <g id="postpaid" stroke="none" stroke-width="1" fill="none" fill-rule="evenodd">
        <g id="1.-IR_Prepaid/Postpaid_Mobile_Start_Jorney_Active-Pack-Check" transform="translate(-322.000000, -374.000000)" fill="#E71818">
            <g id="Benefit-Card" transform="translate(296.000000, 362.000000)">
                <g id="Group-3">
                    <g id="icon/nobillshock/red" transform="translate(26.000000, 12.000000)">
                        <g id="Group" transform="translate(4.000000, 2.000000)">
                            <path d="M6.7589816,12.7627638 C6.81796933,12.7807086 6.8977546,12.7714141 6.94523926,12.6900644 L9.5921411,8.1232546 C9.62591411,8.07365337 9.62876687,8.01181288 9.60005521,7.95715031 C9.57125153,7.90322393 9.51806135,7.87165951 9.45769325,7.87165951 L8.35965644,7.87165951 L8.4675092,6.48521779 C8.47395092,6.4327638 8.4588589,6.38454294 8.42720245,6.34856135 C8.3970184,6.31478834 8.35459509,6.29610736 8.30784663,6.29610736 L6.01257055,6.29684356 C5.92846012,6.29684356 5.85723313,6.36227301 5.85079141,6.44638344 L5.60628221,9.58230368 C5.60057669,9.63402147 5.61566871,9.68224233 5.64732515,9.71748773 C5.6775092,9.75199693 5.71993252,9.77067791 5.76668098,9.77067791 L6.86471779,9.77067791 L6.64468712,12.5973957 C6.63741718,12.6908006 6.69925767,12.7440828 6.7589816,12.7627638" id="Fill-1"></path>
                            <path d="M15.5773764,18.8366206 L14.8561052,18.3806848 L12.1662714,16.6776615 C11.525163,16.2716821 10.6943489,16.3172278 10.0990618,16.7909983 L8.24870048,18.4901861 C8.06094037,18.6626842 7.76723686,18.6627801 7.57986589,18.490282 L5.74234623,16.8013539 L5.73028288,16.7910942 C5.13460664,16.3167483 4.30320877,16.2712986 3.6615167,16.6776615 L1.31821217,18.1608192 L1.31821217,2.85115686 C1.31821217,1.99585774 2.0238205,1.3000163 2.89121383,1.3000163 L12.935796,1.3000163 C13.803092,1.3000163 14.5087976,1.99585774 14.5087976,2.85115686 L14.5087976,15.7357778 C14.5087976,16.0956362 14.8059061,16.3884707 15.1710168,16.3884707 C15.5362248,16.3884707 15.8333333,16.0956362 15.8333333,15.7357778 C15.8333333,15.7099846 15.8314849,15.6834243 15.8277881,15.6550421 L15.8277881,2.85115686 C15.8277881,1.27901736 14.5303949,0 12.935796,0 L2.89121383,0 C1.29700403,0 0,1.27872971 0,2.85038977 L0,19.3475947 C0,19.5117508 0.0575927382,19.7430267 0.33203381,19.9122647 L0.353144662,19.923771 C0.58302919,20.0338476 0.811551727,20.0243549 1.01390459,19.8960601 L4.31371555,17.8080563 C4.50293494,17.6886788 4.7494552,17.7104448 4.9132832,17.8612728 L6.79292728,19.5878839 L6.80547704,19.598719 C7.45466006,20.1120902 8.36641536,20.1124738 9.02270018,19.5994861 L10.9161587,17.861081 C11.0797922,17.7104448 11.3262151,17.6885829 11.51524,17.8079604 L14.8139808,19.8961559 C14.9051369,19.9537832 15.0039784,19.9875349 15.1037929,19.9962605 L15.1134241,19.9972193 C15.1279196,19.9983699 15.1416368,19.9994247 15.1497114,19.999137 C15.1577861,19.9997123 15.165958,20 15.17413,20 C15.5375868,20 15.8333333,19.7086038 15.8333333,19.3503754 C15.8333333,19.147961 15.7384804,18.9593541 15.5773764,18.8366206" id="Fill-3"></path>
                        </g>
                    </g>
                </g>
            </g>
        </g>
    </g>
</svg>