<?xml version="1.0" encoding="UTF-8"?>
<svg width="24px" height="24px" viewBox="0 0 24 24" version="1.1" xmlns="http://www.w3.org/2000/svg" xmlns:xlink="http://www.w3.org/1999/xlink">
    <!-- Generator: sketchtool 61.2 (101010) - https://sketch.com -->
    <title>9CB96A5F-3F80-43B0-BFB2-08DD245A1118</title>
    <desc>Created with sketchtool.</desc>
    <g id="postpaid" stroke="none" stroke-width="1" fill="none" fill-rule="evenodd">
        <g id="1.-IR_Prepaid/Postpaid_Mobile_Start_Jorney_Active-Pack-Check" transform="translate(-42.000000, -374.000000)">
            <g id="Benefit-Card" transform="translate(16.000000, 362.000000)">
                <g id="Group-3">
                    <g id="icon/unlimited/red" transform="translate(26.000000, 12.000000)">
                        <g id="Group-2">
                            <rect id="Rectangle" x="0" y="0" width="24" height="24"></rect>
                            <g id="Fill-30" transform="translate(2.000000, 8.000000)" fill="#E71818">
                                <path d="M15.5427751,1.70530257e-13 C13.3507177,1.70530257e-13 11.3090909,1.37090909 9.47473684,4.07454545 C7.88133971,6.42248804 6.17990431,7.61301435 4.41779904,7.61301435 C2.65588517,7.61301435 1.22258373,6.17961722 1.22258373,4.41779904 C1.22258373,2.65588517 2.65588517,1.22258373 4.41779904,1.22258373 C5.67559809,1.22258373 6.9077512,1.82937799 8.07990431,3.02631579 C8.19397129,3.14267943 8.34650718,3.20803828 8.50966507,3.21043062 C8.67004785,3.21205742 8.82708134,3.15062201 8.944689,3.03550239 C9.18545455,2.79942584 9.18966507,2.41186603 8.95397129,2.17138756 C7.54344498,0.730526316 6.01722488,1.70530257e-13 4.41779904,1.70530257e-13 C1.98181818,1.70530257e-13 -1.13686838e-13,1.98172249 -1.13686838e-13,4.41779904 C-1.13686838e-13,6.8537799 1.98181818,8.83559809 4.41779904,8.83559809 C6.60985646,8.83559809 8.65138756,7.464689 10.4857416,4.76095694 C12.0792344,2.41311005 13.7806699,1.22258373 15.5427751,1.22258373 C17.304689,1.22258373 18.7380861,2.65588517 18.7380861,4.41779904 C18.7380861,6.17961722 17.304689,7.61301435 15.5427751,7.61301435 C14.2848804,7.61301435 13.052823,7.0061244 11.8815311,5.81004785 C11.7674641,5.69244019 11.6139713,5.62698565 11.4440191,5.62583732 C11.2832536,5.62583732 11.1313876,5.6876555 11.0164593,5.80009569 C10.7761722,6.03578947 10.7719617,6.42363636 11.0072727,6.66488038 C12.4180861,8.10526316 13.9440191,8.83559809 15.5427751,8.83559809 C17.978756,8.83559809 19.9605742,6.8537799 19.9605742,4.41779904 C19.9605742,1.98172249 17.978756,1.70530257e-13 15.5427751,1.70530257e-13" id="Fill-29"></path>
                            </g>
                        </g>
                    </g>
                </g>
            </g>
        </g>
    </g>
</svg>