<?xml version="1.0" encoding="UTF-8"?>
<svg width="24px" height="24px" viewBox="0 0 24 24" version="1.1" xmlns="http://www.w3.org/2000/svg" xmlns:xlink="http://www.w3.org/1999/xlink">
    <!-- Generator: sketchtool 61.2 (101010) - https://sketch.com -->
    <title>BFFA38D7-D2C6-4FD4-A2F0-A4BEFE3C45CB</title>
    <desc>Created with sketchtool.</desc>
    <g id="postpaid" stroke="none" stroke-width="1" fill="none" fill-rule="evenodd">
        <g id="1.-IR_Prepaid/Postpaid_Mobile_Start_Jorney_Active-Pack-Check" transform="translate(-135.000000, -374.000000)">
            <g id="Benefit-Card" transform="translate(109.000000, 362.000000)">
                <g id="Group-3">
                    <g id="icon/world/red" transform="translate(26.000000, 12.000000)">
                        <g id="Group-2">
                            <rect id="Rectangle" x="0" y="0" width="24" height="24"></rect>
                        </g>
                        <g id="Group-7" transform="translate(3.000000, 3.000000)" stroke="#E71818" stroke-width="1.3">
                            <path d="M1.17662414,14.0829966 C0.426451724,12.724169 -6.55172414e-05,11.1622379 -6.55172414e-05,9.50006552 C-6.55172414e-05,4.25344483 4.25331379,6.55172414e-05 9.49993448,6.55172414e-05 C14.7465552,6.55172414e-05 18.9999345,4.25344483 18.9999345,9.50006552 C18.9999345,14.7466862 14.7465552,19.0000655 9.49993448,19.0000655 C6.97096897,19.0000655 4.67262414,18.0120655 2.97048621,16.4003414" id="Stroke-1" stroke-linecap="round"></path>
                            <path d="M15.3537034,6.91960345 C17.5734276,7.51974138 18.9997379,8.45205172 18.9997379,9.49967241 C18.9997379,11.3092586 14.7470138,12.7755345 9.49973793,12.7755345 C4.25311724,12.7755345 -0.000262068966,11.3092586 -0.000262068966,9.49967241 C-0.000262068966,7.69074138 4.25311724,6.22381034 9.49973793,6.22381034 C10.0219103,6.22381034 10.5349103,6.23822414 11.0341517,6.26639655" id="Stroke-3" stroke-linecap="round"></path>
                            <path d="M13.4310345,9.5 C13.4310345,14.7466207 11.6705862,19 9.5,19 C7.32941379,19 5.56896552,14.7466207 5.56896552,9.5 C5.56896552,4.25337931 7.32941379,0 9.5,0 C11.6705862,0 13.4310345,4.25337931 13.4310345,9.5 Z" id="Stroke-5"></path>
                        </g>
                    </g>
                </g>
            </g>
        </g>
    </g>
</svg>